{
    "streams": [
        {
            "index": 0,
            "codec_name": "aac",
            "codec_long_name": "AAC (Advanced Audio Coding)",
            "profile": "LC",
            "codec_type": "audio",
            "codec_time_base": "1/22050",
            "codec_tag_string": "mp4a",
            "codec_tag": "0x6134706d",
            "sample_fmt": "fltp",
            "sample_rate": "22050",
            "channels": 2,
            "channel_layout": "stereo",
            "bits_per_sample": 0,
            "r_frame_rate": "0/0",
            "avg_frame_rate": "0/0",
            "time_base": "1/22050",
            "start_pts": 0,
            "start_time": "0.000000",
            "duration_ts": 1326080,
            "duration": "60.139683",
            "bit_rate": "65075",
            "nb_frames": "1295",
            "disposition": {
                "default": 1,
                "dub": 0,
                "original": 0,
                "comment": 0,
                "lyrics": 0,
                "karaoke": 0,
                "forced": 0,
                "hearing_impaired": 0,
                "visual_impaired": 0,
                "clean_effects": 0,
                "attached_pic": 0
            },
            "tags": {
                "creation_time": "2010-02-09 01:55:39",
                "language": "eng",
                "handler_name": "Apple Sound Media Handler"
            }
        },
        {
            "index": 1,
            "codec_name": "h264",
            "codec_long_name": "H.264 / AVC / MPEG-4 AVC / MPEG-4 part 10",
            "profile": "Constrained Baseline",
            "codec_type": "video",
            "codec_time_base": "1/1200",
            "codec_tag_string": "avc1",
            "codec_tag": "0x31637661",
            "width": 640,
            "height": 360,
            "coded_width": 640,
            "coded_height": 368,
            "has_b_frames": 0,
            "sample_aspect_ratio": "0:1",
            "display_aspect_ratio": "0:1",
            "pix_fmt": "yuv420p",
            "level": 30,
            "color_range": "tv",
            "color_space": "smpte170m",
            "color_transfer": "bt709",
            "color_primaries": "smpte170m",
            "chroma_location": "topleft",
            "refs": 2,
            "is_avc": "1",
            "nal_length_size": "4",
            "r_frame_rate": "24/1",
            "avg_frame_rate": "288000/12019",
            "time_base": "1/600",
            "start_pts": 0,
            "start_time": "0.000000",
            "duration_ts": 36057,
            "duration": "60.095000",
            "bit_rate": "612177",
            "bits_per_raw_sample": "8",
            "nb_frames": "1440",
            "disposition": {
                "default": 1,
                "dub": 0,
                "original": 0,
                "comment": 0,
                "lyrics": 0,
                "karaoke": 0,
                "forced": 0,
                "hearing_impaired": 0,
                "visual_impaired": 0,
                "clean_effects": 0,
                "attached_pic": 0
            },
            "tags": {
                "creation_time": "2010-02-09 01:55:39",
                "language": "eng",
                "handler_name": "Apple Video Media Handler"
            }
        },
        {
            "index": 2,
            "codec_type": "data",
            "codec_time_base": "0/1",
            "codec_tag_string": "rtp ",
            "codec_tag": "0x20707472",
            "r_frame_rate": "0/0",
            "avg_frame_rate": "0/0",
            "time_base": "1/90000",
            "start_pts": 0,
            "start_time": "0.000000",
            "duration_ts": 5408550,
            "duration": "60.095000",
            "bit_rate": "45858",
            "nb_frames": "1440",
            "disposition": {
                "default": 0,
                "dub": 0,
                "original": 0,
                "comment": 0,
                "lyrics": 0,
                "karaoke": 0,
                "forced": 0,
                "hearing_impaired": 0,
                "visual_impaired": 0,
                "clean_effects": 0,
                "attached_pic": 0
            },
            "tags": {
                "creation_time": "2010-02-09 01:55:39",
                "language": "eng",
                "handler_name": "hint media handler"
            }
        },
        {
            "index": 3,
            "codec_type": "data",
            "codec_time_base": "0/1",
            "codec_tag_string": "rtp ",
            "codec_tag": "0x20707472",
            "r_frame_rate": "0/0",
            "avg_frame_rate": "0/0",
            "time_base": "1/22050",
            "start_pts": 0,
            "start_time": "0.000000",
            "duration_ts": 1325095,
            "duration": "60.095011",
            "bit_rate": "5514",
            "nb_frames": "648",
            "disposition": {
                "default": 0,
                "dub": 0,
                "original": 0,
                "comment": 0,
                "lyrics": 0,
                "karaoke": 0,
                "forced": 0,
                "hearing_impaired": 0,
                "visual_impaired": 0,
                "clean_effects": 0,
                "attached_pic": 0
            },
            "tags": {
                "creation_time": "2010-02-09 01:55:39",
                "language": "eng",
                "handler_name": "hint media handler"
            }
        }
    ],
    "chapters": [

    ],
    "format": {
        "filename": "spec/test_files/big_buck_bunny.mp4",
        "nb_streams": 4,
        "nb_programs": 0,
        "format_name": "mov,mp4,m4a,3gp,3g2,mj2",
        "format_long_name": "QuickTime / MOV",
        "start_time": "0.000000",
        "duration": "60.095000",
        "size": "5510872",
        "bit_rate": "733621",
        "probe_score": 100,
        "tags": {
            "major_brand": "mp42",
            "minor_version": "1",
            "compatible_brands": "mp42avc1",
            "creation_time": "2010-02-09 01:55:39"
        }
    }
}
